<?xml version="1.0" encoding="UTF-8"?>
<svg width="24px" height="24px" viewBox="0 0 24 24" version="1.1" xmlns="http://www.w3.org/2000/svg" xmlns:xlink="http://www.w3.org/1999/xlink">
    <!-- Generator: Sketch 40.3 (33839) - http://www.bohemiancoding.com/sketch -->
    <title>Group</title>
    <desc>Created with Sketch.</desc>
    <defs></defs>
    <g id="Page-1" stroke="none" stroke-width="1" fill="none" fill-rule="evenodd">
        <g id="Group" stroke="#000000">
            <circle id="Oval" cx="12" cy="12" r="11.5"></circle>
        </g>
        <path d="M17.7967426,13.0066678 L16.2917659,11.9999035 L17.7967426,10.9931874 L17.7967426,13.0066678 Z M12.6015804,17.2740976 L12.6015804,14.4681607 L15.2097079,12.7238683 L17.3150825,14.131929 L12.6015804,17.2740976 Z M12.0000724,13.4231202 L9.8722535,11.9999035 L12.0000724,10.5766868 L14.1276982,11.9999035 L12.0000724,13.4231202 Z M11.3983713,17.2740976 L6.68482095,14.131929 L8.79038859,12.7238683 L11.3983713,14.4681607 L11.3983713,17.2740976 Z M6.20320909,10.9931874 L7.7083306,11.9999035 L6.20320909,13.0066678 L6.20320909,10.9931874 Z M11.3983713,6.72570936 L11.3983713,9.53164627 L8.79038859,11.2763248 L6.68482095,9.86782968 L11.3983713,6.72570936 Z M12.6015804,6.72570936 L17.3150825,9.86782968 L15.2097079,11.2763248 L12.6015804,9.53164627 L12.6015804,6.72570936 Z M18.9791485,9.71207033 C18.9649579,9.66824341 18.9601794,9.65352181 18.9542908,9.63918635 C18.9345494,9.59608343 18.9279851,9.58280986 18.9204071,9.56997069 C18.8952115,9.52942596 18.8869095,9.51726254 18.8778353,9.50548526 C18.8476682,9.46831926 18.8377251,9.45726599 18.8272511,9.44693674 C18.7922572,9.41343906 18.7808661,9.40383382 18.7692337,9.39466299 C18.7384874,9.37183244 18.7353983,9.36888812 18.7320678,9.36666782 L12.3336482,5.10107223 C12.1315527,4.96630926 11.868399,4.96630926 11.6662552,5.10107223 L5.26788392,9.36666782 C5.24852871,9.3806654 5.23969578,9.3876642 5.23086285,9.39466299 C5.21908561,9.40383382 5.20764624,9.41343906 5.19683435,9.42338218 C5.16222664,9.45726599 5.15228356,9.46831926 5.14287143,9.47932425 C5.11323526,9.51726254 5.1047402,9.52942596 5.09682435,9.54197552 C5.07215972,9.58280986 5.06554709,9.59608343 5.05907927,9.60974315 C5.03977232,9.65352181 5.03499385,9.66824341 5.03016711,9.68301327 C5.01636264,9.7286261 5.01341833,9.74556801 5.01028095,9.76255818 C5.00197896,9.81444579 5,9.84060679 5,9.86710567 L5,14.1327013 C5,14.1592001 5.00197896,14.1853611 5.00550248,14.2115222 C5.01341833,14.2542389 5.01636264,14.2711326 5.02080324,14.2877366 C5.03499385,14.3315153 5.03977232,14.3462851 5.04566094,14.3610067 C5.06554709,14.4036752 5.07215972,14.4169488 5.07954463,14.4302224 C5.1047402,14.470381 5.11323526,14.4825444 5.12206819,14.4943217 C5.15228356,14.5314877 5.16222664,14.5425409 5.17270066,14.5528702 C5.20764624,14.5864161 5.21908561,14.5959731 5.23086285,14.6051439 C5.2614161,14.6279745 5.26455348,14.6309188 5.26788392,14.6330908 L11.6662552,18.8987347 C11.7673271,18.9661162 11.8836998,19 12.0000724,19 C12.116252,19 12.2325763,18.9661162 12.3336482,18.8987347 L18.7320678,14.6330908 C18.7513748,14.6191415 18.760256,14.612191 18.7692337,14.6051439 C18.7808661,14.5959731 18.7922572,14.5864161 18.8033105,14.5763765 C18.8377251,14.5425409 18.8476682,14.5314877 18.8572734,14.5204344 C18.8869095,14.4825444 18.8952115,14.470381 18.9033205,14.4578314 C18.9279851,14.4169488 18.9345494,14.4036752 18.9408725,14.390112 C18.9601794,14.3462851 18.9649579,14.3315153 18.9697846,14.3168419 C18.9835891,14.2711326 18.9866782,14.2542389 18.9896708,14.2372488 C18.9979245,14.1853611 19,14.1592001 19,14.1327013 L19,9.86710567 C19,9.84060679 18.9979245,9.81444579 18.9945941,9.78867092 C18.9866782,9.74556801 18.9835891,9.7286261 18.9791485,9.71207033 Z" id="Fill-3" fill="#1A1918"></path>
    </g>
</svg>