<?xml version="1.0" encoding="UTF-8"?>
<svg width="24px" height="24px" viewBox="0 0 24 24" version="1.1" xmlns="http://www.w3.org/2000/svg" xmlns:xlink="http://www.w3.org/1999/xlink">
    <!-- Generator: Sketch 40.3 (33839) - http://www.bohemiancoding.com/sketch -->
    <title>github_filled</title>
    <desc>Created with Sketch.</desc>
    <defs></defs>
    <g id="Page-1" stroke="none" stroke-width="1" fill="none" fill-rule="evenodd">
        <g id="Group">
            <circle id="Oval" stroke="#000000" fill="#000000" cx="12" cy="12.004" r="11.5"></circle>
            <path d="M17.722,6.049 C16.444,6.049 14.2418213,8.12756348 14.2418213,8.12756348 C12.6508213,7.66056348 11.129,7.699 9.535,8.16 C9.524,8.148 7.578,6.05 6.305,6.05 C4.278,7.713 5.838,10.53 5.912,10.661 C5.262,11.637 4.907,12.853 5.02,14.329 C5.174,16.325 6.839,18.506 8.841,18.506 L15.156,18.506 C17.159,18.506 18.824,16.325 18.977,14.329 C19.093,12.852 18.737,11.631 18.086,10.657 C18.086,10.657 19.797,7.752 17.722,6.049 Z M16.79,14.27 C16.79,10.457 14.155,12.014 12,12.014 C9.844,12.014 7.209,10.496 7.209,14.27 C7.209,15.502 8.21,16.505 9.445,16.505 L14.554,16.505 C15.789,16.504 16.79,15.502 16.79,14.27 L16.79,14.27 Z" id="Shape" stroke="#FFFFFF"></path>
            <path d="M14.5,13.004 L14.5,15.004 M9.5,13.004 L9.5,15.004" id="Shape" stroke="#FFFFFF"></path>
        </g>
    </g>
</svg>