<svg xmlns="http://www.w3.org/2000/svg" width="24" height="24" viewBox="0 0 24 24"><g stroke="#000" stroke-linejoin="round" stroke-miterlimit="10" fill="none"><circle stroke-linecap="round" cx="12" cy="12.004" r="11.5"/><path stroke-linecap="round" d="M18.086 10.657l.021.016s1.69-2.921-.385-4.624c-1.278 0-3.232 2.111-3.232 2.111l.015.009c-1.591-.467-3.376-.47-4.97-.009-.011-.012-1.957-2.11-3.23-2.11-2.027 1.663-.467 4.48-.393 4.611-.65.976-1.005 2.192-.892 3.668.154 1.996 1.819 4.177 3.821 4.177h6.315c2.003 0 3.668-2.181 3.821-4.177.116-1.477-.24-2.698-.891-3.672zM16.79 14.27c0-3.813-2.635-2.256-4.79-2.256-2.156 0-4.791-1.518-4.791 2.256 0 1.232 1.001 2.235 2.236 2.235h5.109c1.235-.001 2.236-1.003 2.236-2.235z"/><path d="M14.5 13.004v2M9.5 13.004v2"/></g></svg>