<?xml version="1.0" encoding="UTF-8"?>
<svg width="24px" height="24px" viewBox="0 0 24 24" version="1.1" xmlns="http://www.w3.org/2000/svg" xmlns:xlink="http://www.w3.org/1999/xlink">
    <!-- Generator: Sketch 40.3 (33839) - http://www.bohemiancoding.com/sketch -->
    <title>linkedin_filled</title>
    <desc>Created with Sketch.</desc>
    <defs></defs>
    <g id="Page-1" stroke="none" stroke-width="1" fill="none" fill-rule="evenodd">
        <g id="Group">
            <circle id="Oval" stroke="#000000" fill="#000000" cx="12" cy="12" r="11.5"></circle>
            <path d="M15,12.5 C14.724,12.5 14.5,12.723 14.5,13 L14.5,16.5 L11.5,16.5 C11.5,16.5 11.531,10.022 11.5,9.5 L14.5,9.5 L14.5,10.335 C14.5,10.335 14.957,9.582 16.207,9.582 C17.757,9.582 18.5,10.702 18.5,12.878 L18.5,16.5 L15.5,16.5 L15.5,13 C15.5,12.723 15.275,12.5 15,12.5 L15,12.5 Z M7.5,9.5 L9.5,9.5 L9.5,16.5 L7.5,16.5 L7.5,9.5 Z" id="Shape" stroke="#FFFFFF"></path>
            <circle id="Oval" stroke="#FFFFFF" cx="8.5" cy="6.5" r="1"></circle>
        </g>
    </g>
</svg>