<?xml version="1.0" encoding="UTF-8"?>
<svg width="14px" height="14px" viewBox="0 0 14 14" version="1.1" xmlns="http://www.w3.org/2000/svg" xmlns:xlink="http://www.w3.org/1999/xlink">
    <!-- Generator: Sketch 40.3 (33839) - http://www.bohemiancoding.com/sketch -->
    <title>codepen_nocircle</title>
    <desc>Created with Sketch.</desc>
    <defs></defs>
    <g id="Page-1" stroke="none" stroke-width="1" fill="none" fill-rule="evenodd">
        <g id="Group" transform="translate(-5.000000, -5.000000)"></g>
        <path d="M11.9686366,7.86285813 L10.6786565,6.99991726 L11.9686366,6.13701776 L11.9686366,7.86285813 Z M7.51564035,11.5206551 L7.51564035,9.11556628 L9.75117824,7.62045854 L11.555785,8.8273677 L7.51564035,11.5206551 Z M7.00006206,8.21981727 L5.17621729,6.99991726 L7.00006206,5.78001724 L8.82374134,6.99991726 L7.00006206,8.21981727 Z M6.48431828,11.5206551 L2.44413224,8.8273677 L4.2489045,7.62045854 L6.48431828,9.11556628 L6.48431828,11.5206551 Z M2.03132208,6.13701776 L3.32142623,6.99991726 L2.03132208,7.86285813 L2.03132208,6.13701776 Z M6.48431828,2.47917945 L6.48431828,4.88426823 L4.2489045,6.37970695 L2.44413224,5.17242544 L6.48431828,2.47917945 Z M7.51564035,2.47917945 L11.555785,5.17242544 L9.75117824,6.37970695 L7.51564035,4.88426823 L7.51564035,2.47917945 Z M12.9821273,5.03891743 C12.9699639,5.00135149 12.9658681,4.98873298 12.9608207,4.97644544 C12.9438995,4.93950009 12.9382729,4.92812274 12.9317775,4.91711774 C12.9101813,4.88236511 12.9030653,4.87193932 12.8952874,4.86184451 C12.8694299,4.82998793 12.8609072,4.8205137 12.8519295,4.81166006 C12.8219348,4.78294777 12.812171,4.7747147 12.8022003,4.76685399 C12.7758463,4.74728495 12.7731985,4.74476125 12.7703438,4.74285813 L7.28598419,1.08663334 C7.11275948,0.97112222 6.88719915,0.97112222 6.71393307,1.08663334 L1.22961479,4.74285813 C1.21302461,4.75485606 1.20545352,4.76085502 1.19788244,4.76685399 C1.18778766,4.7747147 1.17798249,4.78294777 1.16871516,4.79147044 C1.13905141,4.8205137 1.13052877,4.82998793 1.12246122,4.83942079 C1.09705879,4.87193932 1.08977732,4.88236511 1.0829923,4.89312188 C1.06185119,4.92812274 1.05618322,4.93950009 1.05063937,4.95120841 C1.03409056,4.98873298 1.02999473,5.00135149 1.02585752,5.01401138 C1.01402512,5.05310808 1.01150143,5.06762972 1.00881224,5.08219273 C1.00169625,5.12666782 1,5.14909154 1,5.17180486 L1,8.82802965 C1,8.85074298 1.00169625,8.8731667 1.00471641,8.89559042 C1.01150143,8.93220479 1.01402512,8.94668505 1.01783135,8.96091708 C1.02999473,8.99844165 1.03409056,9.01110153 1.03913794,9.02372005 C1.05618322,9.06029305 1.06185119,9.0716704 1.06818111,9.08304775 C1.08977732,9.1174694 1.09705879,9.12789519 1.10462988,9.13799 C1.13052877,9.16984658 1.13905141,9.17932081 1.14802914,9.18817445 C1.17798249,9.21692812 1.18778766,9.22511981 1.19788244,9.23298052 C1.22407094,9.25254956 1.22676012,9.25507326 1.22961479,9.25693501 L6.71393307,12.9132012 C6.80056611,12.9709567 6.90031408,13 7.00006206,13 C7.09964455,13 7.19935115,12.9709567 7.28598419,12.9132012 L12.7703438,9.25693501 C12.7868926,9.24497845 12.7945051,9.23902086 12.8022003,9.23298052 C12.812171,9.22511981 12.8219348,9.21692812 12.831409,9.2083227 C12.8609072,9.17932081 12.8694299,9.16984658 12.8776629,9.16037235 C12.9030653,9.12789519 12.9101813,9.1174694 12.9171318,9.10671264 C12.9382729,9.0716704 12.9438995,9.06029305 12.9493193,9.04866747 C12.9658681,9.01110153 12.9699639,8.99844165 12.9741011,8.98586451 C12.9859335,8.94668505 12.9885813,8.93220479 12.9911464,8.91764179 C12.998221,8.8731667 13,8.85074298 13,8.82802965 L13,5.17180486 C13,5.14909154 12.998221,5.12666782 12.9953663,5.10457507 C12.9885813,5.06762972 12.9859335,5.05310808 12.9821273,5.03891743 Z" id="Fill-3" fill="#000000"></path>
        <polygon id="Path-2" fill="#000000" points="6.85498047 1.80981445 1.84692383 5.07592773 1.50610352 8.84667969 6.84326172 12.416748 12.519043 8.81201172 12.5537109 5.15893555"></polygon>
    </g>
</svg>