<?xml version="1.0" encoding="UTF-8"?>
<svg width="14px" height="14px" viewBox="0 0 14 14" version="1.1" xmlns="http://www.w3.org/2000/svg" xmlns:xlink="http://www.w3.org/1999/xlink">
    <!-- Generator: Sketch 40.3 (33839) - http://www.bohemiancoding.com/sketch -->
    <title>github_nocircle</title>
    <desc>Created with Sketch.</desc>
    <defs></defs>
    <g id="Page-1" stroke="none" stroke-width="1" fill="none" fill-rule="evenodd">
        <g id="Group" transform="translate(-5.000000, -5.000000)" stroke="#000000" stroke-width="0.857173477">
            <path d="M16.905628,7 C15.8101603,7 13.9225112,8.83544981 13.9225112,8.83544981 C12.5587482,8.42307122 11.2542833,8.45701212 9.88794878,8.86409248 C9.87851988,8.85349603 8.21046029,7.00088304 7.11927845,7.00088304 C5.38178782,8.46937465 6.71897844,10.9568917 6.78240928,11.0725696 C6.22524652,11.9344144 5.92094993,13.0081882 6.01781054,14.3115517 C6.14981525,16.0740949 7.57700909,18 9.29307039,18 L14.7061209,18 C16.4230394,18 17.8502332,16.0740949 17.9813808,14.3115517 C18.0808129,13.0073051 17.7756591,11.9291162 17.2176392,11.0690375 C17.2176392,11.0690375 18.684263,8.50381312 16.905628,7 Z" id="Shape" fill="#000000"></path>
            <path d="M16,14.1396919 C16,10.9659314 13.7998121,12.2619044 12.0004175,12.2619044 C10.2001879,12.2619044 8,10.9983931 8,14.1396919 C8,15.1651503 8.8358209,16 9.86702849,16 L14.1329715,16 C15.1641791,15.9991676 16,15.1651503 16,14.1396919 L16,14.1396919 Z" id="Path" fill="#000000"></path>
            <path d="M14.1666667,13 L14.1666667,15 M10,13 L10,15" id="Shape"></path>
        </g>
    </g>
</svg>